<mxfile host="app.diagrams.net" agent="Mozilla/5.0 (X11; Linux x86_64) AppleWebKit/537.36 (KHTML, like Gecko) Chrome/135.0.0.0 Safari/537.36" version="26.2.14">
  <diagram name="Page-1" id="vIPe2AmtuBb20rcsMlGB">
    <mxGraphModel dx="983" dy="525" grid="1" gridSize="10" guides="1" tooltips="1" connect="1" arrows="1" fold="1" page="1" pageScale="1" pageWidth="827" pageHeight="1169" math="0" shadow="0">
      <root>
        <mxCell id="0" />
        <mxCell id="1" parent="0" />
        <mxCell id="ivFpjVVUyfax-D2aLF9Q-1" value="Frontend" style="swimlane;whiteSpace=wrap;html=1;startSize=20;fillColor=#f8cecc;strokeColor=#b85450;" vertex="1" parent="1">
          <mxGeometry x="160" y="180" width="200" height="220" as="geometry" />
        </mxCell>
        <mxCell id="ivFpjVVUyfax-D2aLF9Q-3" value="Cliente&lt;div&gt;(Interfaz)&lt;/div&gt;" style="rounded=0;whiteSpace=wrap;html=1;fillColor=#e1d5e7;strokeColor=#9673a6;" vertex="1" parent="ivFpjVVUyfax-D2aLF9Q-1">
          <mxGeometry x="20" y="40" width="160" height="160" as="geometry" />
        </mxCell>
        <mxCell id="ivFpjVVUyfax-D2aLF9Q-2" value="Backend" style="swimlane;whiteSpace=wrap;html=1;startSize=20;fillColor=#d5e8d4;strokeColor=#82b366;" vertex="1" parent="1">
          <mxGeometry x="430" y="180" width="200" height="220" as="geometry" />
        </mxCell>
        <mxCell id="ivFpjVVUyfax-D2aLF9Q-6" value="LÃ³gica de negocio" style="rounded=0;whiteSpace=wrap;html=1;fillColor=#dae8fc;strokeColor=#6c8ebf;" vertex="1" parent="ivFpjVVUyfax-D2aLF9Q-2">
          <mxGeometry x="20" y="40" width="160" height="60" as="geometry" />
        </mxCell>
        <mxCell id="ivFpjVVUyfax-D2aLF9Q-24" style="edgeStyle=orthogonalEdgeStyle;rounded=0;orthogonalLoop=1;jettySize=auto;html=1;exitX=1;exitY=0.25;exitDx=0;exitDy=0;entryX=0;entryY=0.25;entryDx=0;entryDy=0;" edge="1" parent="ivFpjVVUyfax-D2aLF9Q-2" source="ivFpjVVUyfax-D2aLF9Q-10" target="ivFpjVVUyfax-D2aLF9Q-18">
          <mxGeometry relative="1" as="geometry" />
        </mxCell>
        <mxCell id="ivFpjVVUyfax-D2aLF9Q-10" value="Base de datos" style="rounded=0;whiteSpace=wrap;html=1;fillColor=#fff2cc;strokeColor=#d6b656;" vertex="1" parent="ivFpjVVUyfax-D2aLF9Q-2">
          <mxGeometry x="20" y="140" width="70" height="60" as="geometry" />
        </mxCell>
        <mxCell id="ivFpjVVUyfax-D2aLF9Q-25" style="edgeStyle=orthogonalEdgeStyle;rounded=0;orthogonalLoop=1;jettySize=auto;html=1;exitX=0;exitY=0.75;exitDx=0;exitDy=0;entryX=1;entryY=0.75;entryDx=0;entryDy=0;" edge="1" parent="ivFpjVVUyfax-D2aLF9Q-2" source="ivFpjVVUyfax-D2aLF9Q-18" target="ivFpjVVUyfax-D2aLF9Q-10">
          <mxGeometry relative="1" as="geometry" />
        </mxCell>
        <mxCell id="ivFpjVVUyfax-D2aLF9Q-18" value="Alamace-namiento" style="rounded=0;whiteSpace=wrap;html=1;fillColor=#ffe6cc;strokeColor=#d79b00;" vertex="1" parent="ivFpjVVUyfax-D2aLF9Q-2">
          <mxGeometry x="110" y="140" width="70" height="60" as="geometry" />
        </mxCell>
        <mxCell id="ivFpjVVUyfax-D2aLF9Q-21" style="edgeStyle=orthogonalEdgeStyle;rounded=0;orthogonalLoop=1;jettySize=auto;html=1;exitX=0.75;exitY=0;exitDx=0;exitDy=0;entryX=0.328;entryY=0.986;entryDx=0;entryDy=0;entryPerimeter=0;" edge="1" parent="ivFpjVVUyfax-D2aLF9Q-2" source="ivFpjVVUyfax-D2aLF9Q-10" target="ivFpjVVUyfax-D2aLF9Q-6">
          <mxGeometry relative="1" as="geometry" />
        </mxCell>
        <mxCell id="ivFpjVVUyfax-D2aLF9Q-23" style="edgeStyle=orthogonalEdgeStyle;rounded=0;orthogonalLoop=1;jettySize=auto;html=1;exitX=0.25;exitY=0;exitDx=0;exitDy=0;entryX=0.113;entryY=1.02;entryDx=0;entryDy=0;entryPerimeter=0;startArrow=classic;startFill=1;endArrow=none;" edge="1" parent="ivFpjVVUyfax-D2aLF9Q-2" source="ivFpjVVUyfax-D2aLF9Q-10" target="ivFpjVVUyfax-D2aLF9Q-6">
          <mxGeometry relative="1" as="geometry" />
        </mxCell>
        <mxCell id="ivFpjVVUyfax-D2aLF9Q-14" value="" style="endArrow=classic;html=1;rounded=0;exitX=1.002;exitY=0.058;exitDx=0;exitDy=0;exitPerimeter=0;entryX=0.001;entryY=0.159;entryDx=0;entryDy=0;entryPerimeter=0;" edge="1" parent="1" source="ivFpjVVUyfax-D2aLF9Q-3" target="ivFpjVVUyfax-D2aLF9Q-6">
          <mxGeometry width="50" height="50" relative="1" as="geometry">
            <mxPoint x="380" y="210" as="sourcePoint" />
            <mxPoint x="430" y="160" as="targetPoint" />
          </mxGeometry>
        </mxCell>
        <mxCell id="ivFpjVVUyfax-D2aLF9Q-15" value="" style="endArrow=classic;html=1;rounded=0;exitX=0.002;exitY=0.821;exitDx=0;exitDy=0;exitPerimeter=0;entryX=1.006;entryY=0.311;entryDx=0;entryDy=0;entryPerimeter=0;" edge="1" parent="1" source="ivFpjVVUyfax-D2aLF9Q-6" target="ivFpjVVUyfax-D2aLF9Q-3">
          <mxGeometry width="50" height="50" relative="1" as="geometry">
            <mxPoint x="350" y="250" as="sourcePoint" />
            <mxPoint x="460" y="250" as="targetPoint" />
          </mxGeometry>
        </mxCell>
        <mxCell id="ivFpjVVUyfax-D2aLF9Q-26" value="&lt;b&gt;&lt;font style=&quot;font-size: 15px;&quot;&gt;API&lt;/font&gt;&lt;/b&gt;" style="text;strokeColor=none;fillColor=none;align=center;verticalAlign=middle;spacingLeft=4;spacingRight=4;overflow=hidden;points=[[0,0.5],[1,0.5]];portConstraint=eastwest;rotatable=0;whiteSpace=wrap;html=1;" vertex="1" parent="1">
          <mxGeometry x="360" y="230" width="70" height="40" as="geometry" />
        </mxCell>
      </root>
    </mxGraphModel>
  </diagram>
</mxfile>
